<svg width="261" height="64" viewBox="0 0 261 64" fill="none" xmlns="http://www.w3.org/2000/svg">
<path d="M23.7422 16.7344C28.1641 16.7344 31.3906 17.6875 33.4219 19.5938C35.4531 21.4844 36.4687 24.0938 36.4687 27.4219C36.4687 28.9219 36.2422 30.3594 35.7891 31.7344C35.3359 33.0938 34.5937 34.3047 33.5625 35.3672C32.5469 36.4297 31.1875 37.2734 29.4844 37.8984C27.7812 38.5078 25.6797 38.8125 23.1797 38.8125H20.0625V51H12.7969V16.7344H23.7422ZM23.3672 22.6875H20.0625V32.8594H22.4531C23.8125 32.8594 24.9922 32.6797 25.9922 32.3203C26.9922 31.9609 27.7656 31.3984 28.3125 30.6328C28.8594 29.8672 29.1328 28.8828 29.1328 27.6797C29.1328 25.9922 28.6641 24.7422 27.7266 23.9297C26.7891 23.1016 25.3359 22.6875 23.3672 22.6875ZM52.9219 16.7344C56.0312 16.7344 58.5937 17.1094 60.6094 17.8594C62.6406 18.6094 64.1484 19.7422 65.1328 21.2578C66.1172 22.7734 66.6094 24.6875 66.6094 27C66.6094 28.5625 66.3125 29.9297 65.7187 31.1016C65.125 32.2734 64.3437 33.2656 63.375 34.0781C62.4062 34.8906 61.3594 35.5547 60.2344 36.0703L70.3125 51H62.25L54.0703 37.8516H50.2031V51H42.9375V16.7344H52.9219ZM52.4062 22.6875H50.2031V31.9453H52.5469C54.9531 31.9453 56.6719 31.5469 57.7031 30.75C58.75 29.9375 59.2734 28.75 59.2734 27.1875C59.2734 25.5625 58.7109 24.4063 57.5859 23.7188C56.4766 23.0313 54.75 22.6875 52.4062 22.6875ZM105.727 33.8203C105.727 36.4609 105.398 38.8672 104.742 41.0391C104.086 43.1953 103.086 45.0547 101.742 46.6172C100.414 48.1797 98.7266 49.3828 96.6797 50.2266C94.6328 51.0547 92.2109 51.4688 89.4141 51.4688C86.6172 51.4688 84.1953 51.0547 82.1484 50.2266C80.1016 49.3828 78.4063 48.1797 77.0625 46.6172C75.7344 45.0547 74.7422 43.1875 74.0859 41.0156C73.4297 38.8438 73.1016 36.4297 73.1016 33.7734C73.1016 30.2266 73.6797 27.1406 74.8359 24.5156C76.0078 21.875 77.8047 19.8281 80.2266 18.375C82.6484 16.9219 85.7266 16.1953 89.4609 16.1953C93.1797 16.1953 96.2344 16.9219 98.625 18.375C101.031 19.8281 102.813 21.875 103.969 24.5156C105.141 27.1563 105.727 30.2578 105.727 33.8203ZM80.7188 33.8203C80.7188 36.2109 81.0156 38.2734 81.6094 40.0078C82.2188 41.7266 83.1641 43.0547 84.4453 43.9922C85.7266 44.9141 87.3828 45.375 89.4141 45.375C91.4766 45.375 93.1484 44.9141 94.4297 43.9922C95.7109 43.0547 96.6406 41.7266 97.2188 40.0078C97.8125 38.2734 98.1094 36.2109 98.1094 33.8203C98.1094 30.2266 97.4375 27.3984 96.0938 25.3359C94.75 23.2734 92.5391 22.2422 89.4609 22.2422C87.4141 22.2422 85.7422 22.7109 84.4453 23.6484C83.1641 24.5703 82.2188 25.8984 81.6094 27.6328C81.0156 29.3516 80.7188 31.4141 80.7188 33.8203Z" fill="#4C3F77"/>
<path d="M111 12C111 9.79086 112.791 8 115 8H125.25V56H115C112.791 56 111 54.2091 111 52V12Z" fill="#4C3F77"/>
<path d="M127.5 8H142.5V56H127.5V8Z" fill="#4C3F77"/>
<path d="M144.75 8H155C157.209 8 159 9.79086 159 12V52C159 54.2091 157.209 56 155 56H144.75V8Z" fill="#4C3F77"/>
<path d="M196.641 33.8203C196.641 36.4609 196.312 38.8672 195.656 41.0391C195 43.1953 194 45.0547 192.656 46.6172C191.328 48.1797 189.641 49.3828 187.594 50.2266C185.547 51.0547 183.125 51.4688 180.328 51.4688C177.531 51.4688 175.109 51.0547 173.062 50.2266C171.016 49.3828 169.32 48.1797 167.977 46.6172C166.648 45.0547 165.656 43.1875 165 41.0156C164.344 38.8438 164.016 36.4297 164.016 33.7734C164.016 30.2266 164.594 27.1406 165.75 24.5156C166.922 21.875 168.719 19.8281 171.141 18.375C173.562 16.9219 176.641 16.1953 180.375 16.1953C184.094 16.1953 187.148 16.9219 189.539 18.375C191.945 19.8281 193.727 21.875 194.883 24.5156C196.055 27.1562 196.641 30.2578 196.641 33.8203ZM171.633 33.8203C171.633 36.2109 171.93 38.2734 172.523 40.0078C173.133 41.7266 174.078 43.0547 175.359 43.9922C176.641 44.9141 178.297 45.375 180.328 45.375C182.391 45.375 184.062 44.9141 185.344 43.9922C186.625 43.0547 187.555 41.7266 188.133 40.0078C188.727 38.2734 189.023 36.2109 189.023 33.8203C189.023 30.2266 188.352 27.3984 187.008 25.3359C185.664 23.2734 183.453 22.2422 180.375 22.2422C178.328 22.2422 176.656 22.7109 175.359 23.6484C174.078 24.5703 173.133 25.8984 172.523 27.6328C171.93 29.3516 171.633 31.4141 171.633 33.8203ZM223.477 51H203.742V16.7344H223.477V22.6875H211.008V30.2109H222.609V36.1641H211.008V45H223.477V51ZM250.875 41.4844C250.875 43.5156 250.383 45.2812 249.398 46.7812C248.414 48.2812 246.977 49.4375 245.086 50.25C243.211 51.0625 240.93 51.4688 238.242 51.4688C237.055 51.4688 235.891 51.3906 234.75 51.2344C233.625 51.0781 232.539 50.8516 231.492 50.5547C230.461 50.2422 229.477 49.8594 228.539 49.4062V42.6562C230.164 43.375 231.852 44.0234 233.602 44.6016C235.352 45.1797 237.086 45.4688 238.805 45.4688C239.992 45.4688 240.945 45.3125 241.664 45C242.398 44.6875 242.93 44.2578 243.258 43.7109C243.586 43.1641 243.75 42.5391 243.75 41.8359C243.75 40.9766 243.461 40.2422 242.883 39.6328C242.305 39.0234 241.508 38.4531 240.492 37.9219C239.492 37.3906 238.359 36.8203 237.094 36.2109C236.297 35.8359 235.43 35.3828 234.492 34.8516C233.555 34.3047 232.664 33.6406 231.82 32.8594C230.977 32.0781 230.281 31.1328 229.734 30.0234C229.203 28.8984 228.938 27.5547 228.938 25.9922C228.938 23.9453 229.406 22.1953 230.344 20.7422C231.281 19.2891 232.617 18.1797 234.352 17.4141C236.102 16.6328 238.164 16.2422 240.539 16.2422C242.32 16.2422 244.016 16.4531 245.625 16.875C247.25 17.2812 248.945 17.875 250.711 18.6562L248.367 24.3047C246.789 23.6641 245.375 23.1719 244.125 22.8281C242.875 22.4688 241.602 22.2891 240.305 22.2891C239.398 22.2891 238.625 22.4375 237.984 22.7344C237.344 23.0156 236.859 23.4219 236.531 23.9531C236.203 24.4688 236.039 25.0703 236.039 25.7578C236.039 26.5703 236.273 27.2578 236.742 27.8203C237.227 28.3672 237.945 28.8984 238.898 29.4141C239.867 29.9297 241.07 30.5312 242.508 31.2188C244.258 32.0469 245.75 32.9141 246.984 33.8203C248.234 34.7109 249.195 35.7656 249.867 36.9844C250.539 38.1875 250.875 39.6875 250.875 41.4844Z" fill="#4C3F77"/>
</svg>
